<svg xmlns="http://www.w3.org/2000/svg" viewBox="0 0 1200 480" width="1200" height="480"><defs><radialGradient id="mesh1" cx="15%" cy="20%" r="40%">
		<stop offset="0%" stop-color="#7C3AED" stop-opacity="0.08"/>
		<stop offset="100%" stop-color="#7C3AED" stop-opacity="0"/>
	</radialGradient><radialGradient id="mesh2" cx="85%" cy="70%" r="35%">
		<stop offset="0%" stop-color="#22D3EE" stop-opacity="0.06"/>
		<stop offset="100%" stop-color="#22D3EE" stop-opacity="0"/>
	</radialGradient><pattern id="scanlines" width="4" height="4" patternUnits="userSpaceOnUse">
		<rect width="4" height="1" fill="rgba(125,211,252,0.03)"/>
	</pattern><linearGradient id="nameGrad" x1="0%" y1="0%" x2="100%" y2="0%">
		<stop offset="0%" stop-color="#A78BFA">
			<animate attributeName="stop-color" values="#A78BFA;#22D3EE;#34D399;#A78BFA" dur="6s" repeatCount="indefinite"/>
		</stop>
		<stop offset="50%" stop-color="#22D3EE">
			<animate attributeName="stop-color" values="#22D3EE;#34D399;#A78BFA;#22D3EE" dur="6s" repeatCount="indefinite"/>
		</stop>
		<stop offset="100%" stop-color="#34D399">
			<animate attributeName="stop-color" values="#34D399;#A78BFA;#22D3EE;#34D399" dur="6s" repeatCount="indefinite"/>
		</stop>
	</linearGradient><linearGradient id="barGrad" x1="0%" y1="0%" x2="100%" y2="0%">
		<stop offset="0%" stop-color="#7C3AED"/>
		<stop offset="100%" stop-color="#22D3EE"/>
	</linearGradient><linearGradient id="borderAnim" x1="0%" y1="0%" x2="100%" y2="100%">
		<stop offset="0%" stop-color="#7C3AED" stop-opacity="0.5">
			<animate attributeName="stop-opacity" values="0.5;0.2;0.5" dur="3s" repeatCount="indefinite"/>
		</stop>
		<stop offset="50%" stop-color="#22D3EE" stop-opacity="0.3">
			<animate attributeName="stop-opacity" values="0.3;0.6;0.3" dur="3s" repeatCount="indefinite"/>
		</stop>
		<stop offset="100%" stop-color="#34D399" stop-opacity="0.5">
			<animate attributeName="stop-opacity" values="0.5;0.2;0.5" dur="3s" repeatCount="indefinite"/>
		</stop>
	</linearGradient><linearGradient id="scanBeam" x1="0%" y1="0%" x2="0%" y2="100%">
		<stop offset="0%" stop-color="#22D3EE" stop-opacity="0"/>
		<stop offset="40%" stop-color="#22D3EE" stop-opacity="0"/>
		<stop offset="50%" stop-color="#22D3EE" stop-opacity="0.15"/>
		<stop offset="60%" stop-color="#22D3EE" stop-opacity="0"/>
		<stop offset="100%" stop-color="#22D3EE" stop-opacity="0"/>
	</linearGradient><filter id="glow" x="-30%" y="-30%" width="160%" height="160%">
		<feGaussianBlur stdDeviation="4" result="blur"/>
		<feMerge><feMergeNode in="blur"/><feMergeNode in="SourceGraphic"/></feMerge>
	</filter><filter id="softGlow" x="-20%" y="-20%" width="140%" height="140%">
		<feGaussianBlur stdDeviation="2" result="blur"/>
		<feMerge><feMergeNode in="blur"/><feMergeNode in="SourceGraphic"/></feMerge>
	</filter><filter id="nameShadow" x="-10%" y="-10%" width="120%" height="120%">
		<feDropShadow dx="0" dy="0" stdDeviation="8" flood-color="#7C3AED" flood-opacity="0.4"/>
	</filter><radialGradient id="cellGlow" cx="50%" cy="50%" r="50%">
		<stop offset="0%" stop-color="#39D353" stop-opacity="0.8"/>
		<stop offset="100%" stop-color="#39D353" stop-opacity="0"/>
	</radialGradient></defs><rect width="1200" height="480" rx="16" fill="#0d1117"/><rect width="1200" height="480" rx="16" fill="url(#mesh1)"/><rect width="1200" height="480" rx="16" fill="url(#mesh2)"/><rect width="1200" height="480" rx="16" fill="url(#scanlines)"/><line x1="0" y1="0" x2="0" y2="480" stroke="rgba(255,255,255,0.02)" stroke-width="0.5"/><line x1="60" y1="0" x2="60" y2="480" stroke="rgba(255,255,255,0.02)" stroke-width="0.5"/><line x1="120" y1="0" x2="120" y2="480" stroke="rgba(255,255,255,0.02)" stroke-width="0.5"/><line x1="180" y1="0" x2="180" y2="480" stroke="rgba(255,255,255,0.02)" stroke-width="0.5"/><line x1="240" y1="0" x2="240" y2="480" stroke="rgba(255,255,255,0.02)" stroke-width="0.5"/><line x1="300" y1="0" x2="300" y2="480" stroke="rgba(255,255,255,0.02)" stroke-width="0.5"/><line x1="360" y1="0" x2="360" y2="480" stroke="rgba(255,255,255,0.02)" stroke-width="0.5"/><line x1="420" y1="0" x2="420" y2="480" stroke="rgba(255,255,255,0.02)" stroke-width="0.5"/><line x1="480" y1="0" x2="480" y2="480" stroke="rgba(255,255,255,0.02)" stroke-width="0.5"/><line x1="540" y1="0" x2="540" y2="480" stroke="rgba(255,255,255,0.02)" stroke-width="0.5"/><line x1="600" y1="0" x2="600" y2="480" stroke="rgba(255,255,255,0.02)" stroke-width="0.5"/><line x1="660" y1="0" x2="660" y2="480" stroke="rgba(255,255,255,0.02)" stroke-width="0.5"/><line x1="720" y1="0" x2="720" y2="480" stroke="rgba(255,255,255,0.02)" stroke-width="0.5"/><line x1="780" y1="0" x2="780" y2="480" stroke="rgba(255,255,255,0.02)" stroke-width="0.5"/><line x1="840" y1="0" x2="840" y2="480" stroke="rgba(255,255,255,0.02)" stroke-width="0.5"/><line x1="900" y1="0" x2="900" y2="480" stroke="rgba(255,255,255,0.02)" stroke-width="0.5"/><line x1="960" y1="0" x2="960" y2="480" stroke="rgba(255,255,255,0.02)" stroke-width="0.5"/><line x1="1020" y1="0" x2="1020" y2="480" stroke="rgba(255,255,255,0.02)" stroke-width="0.5"/><line x1="1080" y1="0" x2="1080" y2="480" stroke="rgba(255,255,255,0.02)" stroke-width="0.5"/><line x1="1140" y1="0" x2="1140" y2="480" stroke="rgba(255,255,255,0.02)" stroke-width="0.5"/><line x1="0" y1="0" x2="1200" y2="0" stroke="rgba(255,255,255,0.02)" stroke-width="0.5"/><line x1="0" y1="60" x2="1200" y2="60" stroke="rgba(255,255,255,0.02)" stroke-width="0.5"/><line x1="0" y1="120" x2="1200" y2="120" stroke="rgba(255,255,255,0.02)" stroke-width="0.5"/><line x1="0" y1="180" x2="1200" y2="180" stroke="rgba(255,255,255,0.02)" stroke-width="0.5"/><line x1="0" y1="240" x2="1200" y2="240" stroke="rgba(255,255,255,0.02)" stroke-width="0.5"/><line x1="0" y1="300" x2="1200" y2="300" stroke="rgba(255,255,255,0.02)" stroke-width="0.5"/><line x1="0" y1="360" x2="1200" y2="360" stroke="rgba(255,255,255,0.02)" stroke-width="0.5"/><line x1="0" y1="420" x2="1200" y2="420" stroke="rgba(255,255,255,0.02)" stroke-width="0.5"/><text x="48" y="72" font-family="'SF Pro Display','Inter','Segoe UI',system-ui,sans-serif" font-size="36" font-weight="800" fill="url(#nameGrad)" filter="url(#nameShadow)">
		@krauzX
	</text><rect x="48" y="184" width="110" height="52" rx="10" fill="rgba(255,255,255,0.03)" stroke="rgba(255,255,255,0.06)" stroke-width="0.5"/><circle cx="60" cy="202" r="3" fill="#7C3AED" opacity="0.8"/><text x="70" y="206" font-family="'SF Mono','Fira Code',monospace" font-size="20" font-weight="700" fill="#E6EDF3">
			120
		</text><text x="60" y="222" font-family="'SF Pro Display','Inter',system-ui,sans-serif" font-size="9" fill="#6E7681" letter-spacing="0.5">
			contributions
		</text><rect x="168" y="184" width="110" height="52" rx="10" fill="rgba(255,255,255,0.03)" stroke="rgba(255,255,255,0.06)" stroke-width="0.5"/><circle cx="180" cy="202" r="3" fill="#22D3EE" opacity="0.8"/><text x="190" y="206" font-family="'SF Mono','Fira Code',monospace" font-size="20" font-weight="700" fill="#E6EDF3">
			4
		</text><text x="180" y="222" font-family="'SF Pro Display','Inter',system-ui,sans-serif" font-size="9" fill="#6E7681" letter-spacing="0.5">
			followers
		</text><rect x="288" y="184" width="110" height="52" rx="10" fill="rgba(255,255,255,0.03)" stroke="rgba(255,255,255,0.06)" stroke-width="0.5"/><circle cx="300" cy="202" r="3" fill="#34D399" opacity="0.8"/><text x="310" y="206" font-family="'SF Mono','Fira Code',monospace" font-size="20" font-weight="700" fill="#E6EDF3">
			9
		</text><text x="300" y="222" font-family="'SF Pro Display','Inter',system-ui,sans-serif" font-size="9" fill="#6E7681" letter-spacing="0.5">
			repos
		</text><rect x="408" y="184" width="110" height="52" rx="10" fill="rgba(255,255,255,0.03)" stroke="rgba(255,255,255,0.06)" stroke-width="0.5"/><circle cx="420" cy="202" r="3" fill="#F59E0B" opacity="0.8"/><text x="430" y="206" font-family="'SF Mono','Fira Code',monospace" font-size="20" font-weight="700" fill="#E6EDF3">
			4
		</text><text x="420" y="222" font-family="'SF Pro Display','Inter',system-ui,sans-serif" font-size="9" fill="#6E7681" letter-spacing="0.5">
			languages
		</text><rect x="48" y="270" width="34" height="24" rx="12" fill="#00ADD8" fill-opacity="0.12" stroke="#00ADD8" stroke-opacity="0.25" stroke-width="0.5"/><circle cx="58" cy="282" r="3" fill="#00ADD8"/><text x="66" y="285" font-family="'SF Mono',monospace" font-size="10" fill="#00ADD8">
			Go
		</text><rect x="88" y="270" width="90" height="24" rx="12" fill="#3178C6" fill-opacity="0.12" stroke="#3178C6" stroke-opacity="0.25" stroke-width="0.5"/><circle cx="98" cy="282" r="3" fill="#3178C6"/><text x="106" y="285" font-family="'SF Mono',monospace" font-size="10" fill="#3178C6">
			TypeScript
		</text><rect x="184" y="270" width="62" height="24" rx="12" fill="#3776AB" fill-opacity="0.12" stroke="#3776AB" stroke-opacity="0.25" stroke-width="0.5"/><circle cx="194" cy="282" r="3" fill="#3776AB"/><text x="202" y="285" font-family="'SF Mono',monospace" font-size="10" fill="#3776AB">
			Python
		</text><rect x="252" y="270" width="62" height="24" rx="12" fill="#ff3e00" fill-opacity="0.12" stroke="#ff3e00" stroke-opacity="0.25" stroke-width="0.5"/><circle cx="262" cy="282" r="3" fill="#ff3e00"/><text x="270" y="285" font-family="'SF Mono',monospace" font-size="10" fill="#ff3e00">
			Svelte
		</text><text x="620" y="98" font-family="'SF Mono',monospace" font-size="10" fill="#6E7681" letter-spacing="2" text-transform="uppercase">
		CONTRIBUTION ACTIVITY
	</text><text x="608" y="118" font-family="'SF Mono',monospace" font-size="8" fill="#6E7681" opacity="0.5">
				M
			</text><text x="608" y="142" font-family="'SF Mono',monospace" font-size="8" fill="#6E7681" opacity="0.5">
				W
			</text><text x="608" y="166" font-family="'SF Mono',monospace" font-size="8" fill="#6E7681" opacity="0.5">
				F
			</text><text x="608" y="190" font-family="'SF Mono',monospace" font-size="8" fill="#6E7681" opacity="0.5">
				S
			</text><rect x="620" y="110" width="10" height="10" rx="2" fill="#161B22" opacity="0.4"/><rect x="620" y="122" width="10" height="10" rx="2" fill="#161B22" opacity="0.4"/><rect x="620" y="134" width="10" height="10" rx="2" fill="#161B22" opacity="0.4"/><rect x="620" y="146" width="10" height="10" rx="2" fill="#161B22" opacity="0.4"/><rect x="620" y="158" width="10" height="10" rx="2" fill="#161B22" opacity="0.4"/><rect x="620" y="170" width="10" height="10" rx="2" fill="#161B22" opacity="0.4"/><rect x="620" y="182" width="10" height="10" rx="2" fill="#161B22" opacity="0.4"/><rect x="632" y="110" width="10" height="10" rx="2" fill="#161B22" opacity="0.4"/><rect x="632" y="122" width="10" height="10" rx="2" fill="#161B22" opacity="0.4"/><rect x="632" y="134" width="10" height="10" rx="2" fill="#161B22" opacity="0.4"/><rect x="632" y="146" width="10" height="10" rx="2" fill="#161B22" opacity="0.4"/><rect x="632" y="158" width="10" height="10" rx="2" fill="#161B22" opacity="0.4"/><rect x="632" y="170" width="10" height="10" rx="2" fill="#161B22" opacity="0.4"/><rect x="632" y="182" width="10" height="10" rx="2" fill="#161B22" opacity="0.4"/><rect x="644" y="110" width="10" height="10" rx="2" fill="#161B22" opacity="0.4"/><rect x="644" y="122" width="10" height="10" rx="2" fill="#161B22" opacity="0.4"/><rect x="644" y="134" width="10" height="10" rx="2" fill="#161B22" opacity="0.4"/><rect x="644" y="146" width="10" height="10" rx="2" fill="#161B22" opacity="0.4"/><rect x="644" y="158" width="10" height="10" rx="2" fill="#161B22" opacity="0.4"/><rect x="644" y="170" width="10" height="10" rx="2" fill="#161B22" opacity="0.4"/><rect x="644" y="182" width="10" height="10" rx="2" fill="#161B22" opacity="0.4"/><rect x="656" y="110" width="10" height="10" rx="2" fill="#161B22" opacity="0.4"/><rect x="656" y="122" width="10" height="10" rx="2" fill="#161B22" opacity="0.4"/><rect x="656" y="134" width="10" height="10" rx="2" fill="#161B22" opacity="0.4"/><rect x="656" y="146" width="10" height="10" rx="2" fill="#161B22" opacity="0.4"/><rect x="656" y="158" width="10" height="10" rx="2" fill="#161B22" opacity="0.4"/><rect x="656" y="170" width="10" height="10" rx="2" fill="#161B22" opacity="0.4"/><rect x="656" y="182" width="10" height="10" rx="2" fill="#161B22" opacity="0.4"/><rect x="668" y="110" width="10" height="10" rx="2" fill="#161B22" opacity="0.4"/><rect x="668" y="122" width="10" height="10" rx="2" fill="#161B22" opacity="0.4"/><rect x="668" y="134" width="10" height="10" rx="2" fill="#161B22" opacity="0.4"/><rect x="668" y="146" width="10" height="10" rx="2" fill="#161B22" opacity="0.4"/><rect x="668" y="158" width="10" height="10" rx="2" fill="#161B22" opacity="0.4"/><rect x="668" y="170" width="10" height="10" rx="2" fill="#161B22" opacity="0.4"/><rect x="668" y="182" width="10" height="10" rx="2" fill="#161B22" opacity="0.4"/><rect x="680" y="110" width="10" height="10" rx="2" fill="#161B22" opacity="0.4"/><rect x="680" y="122" width="10" height="10" rx="2" fill="#161B22" opacity="0.4"/><rect x="680" y="134" width="10" height="10" rx="2" fill="#161B22" opacity="0.4"/><rect x="680" y="146" width="10" height="10" rx="2" fill="#161B22" opacity="0.4"/><rect x="680" y="158" width="10" height="10" rx="2" fill="#161B22" opacity="0.4"/><rect x="680" y="170" width="10" height="10" rx="2" fill="#161B22" opacity="0.4"/><rect x="680" y="182" width="10" height="10" rx="2" fill="#161B22" opacity="0.4"/><rect x="692" y="110" width="10" height="10" rx="2" fill="#161B22" opacity="0.4"/><rect x="692" y="122" width="10" height="10" rx="2" fill="#161B22" opacity="0.4"/><rect x="692" y="134" width="10" height="10" rx="2" fill="#161B22" opacity="0.4"/><rect x="692" y="146" width="10" height="10" rx="2" fill="#161B22" opacity="0.4"/><rect x="692" y="158" width="10" height="10" rx="2" fill="#161B22" opacity="0.4"/><rect x="692" y="170" width="10" height="10" rx="2" fill="#161B22" opacity="0.4"/><rect x="692" y="182" width="10" height="10" rx="2" fill="#161B22" opacity="0.4"/><rect x="704" y="110" width="10" height="10" rx="2" fill="#161B22" opacity="0.4"/><rect x="704" y="122" width="10" height="10" rx="2" fill="#161B22" opacity="0.4"/><rect x="704" y="134" width="10" height="10" rx="2" fill="#161B22" opacity="0.4"/><rect x="704" y="146" width="10" height="10" rx="2" fill="#161B22" opacity="0.4"/><rect x="704" y="158" width="10" height="10" rx="2" fill="#161B22" opacity="0.4"/><rect x="704" y="170" width="10" height="10" rx="2" fill="#161B22" opacity="0.4"/><rect x="704" y="182" width="10" height="10" rx="2" fill="#161B22" opacity="0.4"/><rect x="716" y="110" width="10" height="10" rx="2" fill="#161B22" opacity="0.4"/><rect x="716" y="122" width="10" height="10" rx="2" fill="#161B22" opacity="0.4"/><rect x="716" y="134" width="10" height="10" rx="2" fill="#161B22" opacity="0.4"/><rect x="716" y="146" width="10" height="10" rx="2" fill="#161B22" opacity="0.4"/><rect x="716" y="158" width="10" height="10" rx="2" fill="#161B22" opacity="0.4"/><rect x="716" y="170" width="10" height="10" rx="2" fill="#161B22" opacity="0.4"/><rect x="716" y="182" width="10" height="10" rx="2" fill="#161B22" opacity="0.4"/><rect x="728" y="110" width="10" height="10" rx="2" fill="#161B22" opacity="0.4"/><rect x="728" y="122" width="10" height="10" rx="2" fill="#161B22" opacity="0.4"/><rect x="728" y="134" width="10" height="10" rx="2" fill="#161B22" opacity="0.4"/><rect x="728" y="146" width="10" height="10" rx="2" fill="#161B22" opacity="0.4"/><rect x="728" y="158" width="10" height="10" rx="2" fill="#161B22" opacity="0.4"/><rect x="728" y="170" width="10" height="10" rx="2" fill="#161B22" opacity="0.4"/><rect x="728" y="182" width="10" height="10" rx="2" fill="#161B22" opacity="0.4"/><rect x="740" y="110" width="10" height="10" rx="2" fill="#161B22" opacity="0.4"/><rect x="740" y="122" width="10" height="10" rx="2" fill="#161B22" opacity="0.4"/><rect x="740" y="134" width="10" height="10" rx="2" fill="#161B22" opacity="0.4"/><rect x="740" y="146" width="10" height="10" rx="2" fill="#161B22" opacity="0.4"/><rect x="740" y="158" width="10" height="10" rx="2" fill="#161B22" opacity="0.4"/><rect x="740" y="170" width="10" height="10" rx="2" fill="#161B22" opacity="0.4"/><rect x="740" y="182" width="10" height="10" rx="2" fill="#161B22" opacity="0.4"/><rect x="752" y="110" width="10" height="10" rx="2" fill="#161B22" opacity="0.4"/><rect x="752" y="122" width="10" height="10" rx="2" fill="#161B22" opacity="0.4"/><rect x="752" y="134" width="10" height="10" rx="2" fill="#161B22" opacity="0.4"/><rect x="752" y="146" width="10" height="10" rx="2" fill="#161B22" opacity="0.4"/><rect x="752" y="158" width="10" height="10" rx="2" fill="#161B22" opacity="0.4"/><rect x="752" y="170" width="10" height="10" rx="2" fill="#161B22" opacity="0.4"/><rect x="752" y="182" width="10" height="10" rx="2" fill="#161B22" opacity="0.4"/><rect x="764" y="110" width="10" height="10" rx="2" fill="#161B22" opacity="0.4"/><rect x="764" y="122" width="10" height="10" rx="2" fill="#161B22" opacity="0.4"/><rect x="764" y="134" width="10" height="10" rx="2" fill="#161B22" opacity="0.4"/><rect x="764" y="146" width="10" height="10" rx="2" fill="#161B22" opacity="0.4"/><rect x="764" y="158" width="10" height="10" rx="2" fill="#161B22" opacity="0.4"/><rect x="764" y="170" width="10" height="10" rx="2" fill="#161B22" opacity="0.4"/><rect x="764" y="182" width="10" height="10" rx="2" fill="#161B22" opacity="0.4"/><rect x="776" y="110" width="10" height="10" rx="2" fill="#161B22" opacity="0.4"/><rect x="776" y="122" width="10" height="10" rx="2" fill="#161B22" opacity="0.4"/><rect x="776" y="134" width="10" height="10" rx="2" fill="#161B22" opacity="0.4"/><rect x="776" y="146" width="10" height="10" rx="2" fill="#161B22" opacity="0.4"/><rect x="776" y="158" width="10" height="10" rx="2" fill="#161B22" opacity="0.4"/><rect x="776" y="170" width="10" height="10" rx="2" fill="#161B22" opacity="0.4"/><rect x="776" y="182" width="10" height="10" rx="2" fill="#161B22" opacity="0.4"/><rect x="788" y="110" width="10" height="10" rx="2" fill="#161B22" opacity="0.4"/><rect x="788" y="122" width="10" height="10" rx="2" fill="#161B22" opacity="0.4"/><rect x="788" y="134" width="10" height="10" rx="2" fill="#161B22" opacity="0.4"/><rect x="788" y="146" width="10" height="10" rx="2" fill="#161B22" opacity="0.4"/><rect x="788" y="158" width="10" height="10" rx="2" fill="#161B22" opacity="0.4"/><rect x="788" y="170" width="10" height="10" rx="2" fill="#161B22" opacity="0.4"/><rect x="788" y="182" width="10" height="10" rx="2" fill="#161B22" opacity="0.4"/><rect x="800" y="110" width="10" height="10" rx="2" fill="#161B22" opacity="0.4"/><rect x="800" y="122" width="10" height="10" rx="2" fill="#161B22" opacity="0.4"/><rect x="800" y="134" width="10" height="10" rx="2" fill="#161B22" opacity="0.4"/><rect x="800" y="146" width="10" height="10" rx="2" fill="#161B22" opacity="0.4"/><rect x="800" y="158" width="10" height="10" rx="2" fill="#161B22" opacity="0.4"/><rect x="800" y="170" width="10" height="10" rx="2" fill="#161B22" opacity="0.4"/><rect x="800" y="182" width="10" height="10" rx="2" fill="#161B22" opacity="0.4"/><rect x="812" y="110" width="10" height="10" rx="2" fill="#161B22" opacity="0.4"/><rect x="812" y="122" width="10" height="10" rx="2" fill="#161B22" opacity="0.4"/><rect x="812" y="134" width="10" height="10" rx="2" fill="#161B22" opacity="0.4"/><rect x="812" y="146" width="10" height="10" rx="2" fill="#161B22" opacity="0.4"/><rect x="812" y="158" width="10" height="10" rx="2" fill="#161B22" opacity="0.4"/><rect x="812" y="170" width="10" height="10" rx="2" fill="#161B22" opacity="0.4"/><rect x="812" y="182" width="10" height="10" rx="2" fill="#161B22" opacity="0.4"/><rect x="824" y="110" width="10" height="10" rx="2" fill="#161B22" opacity="0.4"/><rect x="824" y="122" width="10" height="10" rx="2" fill="#161B22" opacity="0.4"/><rect x="824" y="134" width="10" height="10" rx="2" fill="#161B22" opacity="0.4"/><rect x="824" y="146" width="10" height="10" rx="2" fill="#161B22" opacity="0.4"/><rect x="824" y="158" width="10" height="10" rx="2" fill="#161B22" opacity="0.4"/><rect x="824" y="170" width="10" height="10" rx="2" fill="#161B22" opacity="0.4"/><rect x="824" y="182" width="10" height="10" rx="2" fill="#161B22" opacity="0.4"/><rect x="836" y="110" width="10" height="10" rx="2" fill="#161B22" opacity="0.4"/><rect x="836" y="122" width="10" height="10" rx="2" fill="#161B22" opacity="0.4"/><rect x="836" y="134" width="10" height="10" rx="2" fill="#161B22" opacity="0.4"/><rect x="836" y="146" width="10" height="10" rx="2" fill="#161B22" opacity="0.4"/><rect x="836" y="158" width="10" height="10" rx="2" fill="#161B22" opacity="0.4"/><rect x="836" y="170" width="10" height="10" rx="2" fill="#161B22" opacity="0.4"/><rect x="836" y="182" width="10" height="10" rx="2" fill="#161B22" opacity="0.4"/><rect x="848" y="110" width="10" height="10" rx="2" fill="#161B22" opacity="0.4"/><rect x="848" y="122" width="10" height="10" rx="2" fill="#161B22" opacity="0.4"/><rect x="848" y="134" width="10" height="10" rx="2" fill="#161B22" opacity="0.4"/><rect x="848" y="146" width="10" height="10" rx="2" fill="#161B22" opacity="0.4"/><rect x="848" y="158" width="10" height="10" rx="2" fill="#161B22" opacity="0.4"/><rect x="848" y="170" width="10" height="10" rx="2" fill="#161B22" opacity="0.4"/><rect x="848" y="182" width="10" height="10" rx="2" fill="#161B22" opacity="0.4"/><rect x="860" y="110" width="10" height="10" rx="2" fill="#161B22" opacity="0.4"/><rect x="860" y="122" width="10" height="10" rx="2" fill="#161B22" opacity="0.4"/><rect x="860" y="134" width="10" height="10" rx="2" fill="#161B22" opacity="0.4"/><rect x="860" y="146" width="10" height="10" rx="2" fill="#161B22" opacity="0.4"/><rect x="860" y="158" width="10" height="10" rx="2" fill="#161B22" opacity="0.4"/><rect x="860" y="170" width="10" height="10" rx="2" fill="#161B22" opacity="0.4"/><rect x="860" y="182" width="10" height="10" rx="2" fill="#161B22" opacity="0.4"/><rect x="872" y="110" width="10" height="10" rx="2" fill="#161B22" opacity="0.4"/><rect x="872" y="122" width="10" height="10" rx="2" fill="#161B22" opacity="0.4"/><rect x="872" y="134" width="10" height="10" rx="2" fill="#161B22" opacity="0.4"/><rect x="872" y="146" width="10" height="10" rx="2" fill="#161B22" opacity="0.4"/><rect x="872" y="158" width="10" height="10" rx="2" fill="#161B22" opacity="0.4"/><rect x="872" y="170" width="10" height="10" rx="2" fill="#161B22" opacity="0.4"/><rect x="872" y="182" width="10" height="10" rx="2" fill="#161B22" opacity="0.4"/><rect x="884" y="110" width="10" height="10" rx="2" fill="#161B22" opacity="0.4"/><rect x="884" y="122" width="10" height="10" rx="2" fill="#161B22" opacity="0.4"/><rect x="884" y="134" width="10" height="10" rx="2" fill="#161B22" opacity="0.4"/><rect x="884" y="146" width="10" height="10" rx="2" fill="#161B22" opacity="0.4"/><rect x="884" y="158" width="10" height="10" rx="2" fill="#161B22" opacity="0.4"/><rect x="884" y="170" width="10" height="10" rx="2" fill="#161B22" opacity="0.4"/><rect x="884" y="182" width="10" height="10" rx="2" fill="#161B22" opacity="0.4"/><rect x="896" y="110" width="10" height="10" rx="2" fill="#161B22" opacity="0.4"/><rect x="896" y="122" width="10" height="10" rx="2" fill="#161B22" opacity="0.4"/><rect x="896" y="134" width="10" height="10" rx="2" fill="#161B22" opacity="0.4"/><rect x="896" y="146" width="10" height="10" rx="2" fill="#161B22" opacity="0.4"/><rect x="896" y="158" width="10" height="10" rx="2" fill="#161B22" opacity="0.4"/><rect x="896" y="170" width="10" height="10" rx="2" fill="#161B22" opacity="0.4"/><rect x="896" y="182" width="10" height="10" rx="2" fill="#161B22" opacity="0.4"/><rect x="908" y="110" width="10" height="10" rx="2" fill="#161B22" opacity="0.4"/><rect x="908" y="122" width="10" height="10" rx="2" fill="#161B22" opacity="0.4"/><rect x="908" y="134" width="10" height="10" rx="2" fill="#161B22" opacity="0.4"/><rect x="908" y="146" width="10" height="10" rx="2" fill="#161B22" opacity="0.4"/><rect x="908" y="158" width="10" height="10" rx="2" fill="#161B22" opacity="0.4"/><rect x="908" y="170" width="10" height="10" rx="2" fill="#161B22" opacity="0.4"/><rect x="908" y="182" width="10" height="10" rx="2" fill="#161B22" opacity="0.4"/><rect x="920" y="110" width="10" height="10" rx="2" fill="#161B22" opacity="0.4"/><rect x="920" y="122" width="10" height="10" rx="2" fill="#161B22" opacity="0.4"/><rect x="920" y="134" width="10" height="10" rx="2" fill="#161B22" opacity="0.4"/><rect x="920" y="146" width="10" height="10" rx="2" fill="#161B22" opacity="0.4"/><rect x="920" y="158" width="10" height="10" rx="2" fill="#161B22" opacity="0.4"/><rect x="920" y="170" width="10" height="10" rx="2" fill="#161B22" opacity="0.4"/><rect x="920" y="182" width="10" height="10" rx="2" fill="#161B22" opacity="0.4"/><rect x="932" y="110" width="10" height="10" rx="2" fill="#161B22" opacity="0.4"/><rect x="932" y="122" width="10" height="10" rx="2" fill="#161B22" opacity="0.4"/><rect x="932" y="134" width="10" height="10" rx="2" fill="#161B22" opacity="0.4"/><rect x="932" y="146" width="10" height="10" rx="2" fill="#161B22" opacity="0.4"/><rect x="932" y="158" width="10" height="10" rx="2" fill="#161B22" opacity="0.4"/><rect x="932" y="170" width="10" height="10" rx="2" fill="#161B22" opacity="0.4"/><rect x="932" y="182" width="10" height="10" rx="2" fill="#161B22" opacity="0.4"/><rect x="944" y="110" width="10" height="10" rx="2" fill="#161B22" opacity="0.4"/><rect x="944" y="122" width="10" height="10" rx="2" fill="#161B22" opacity="0.4"/><rect x="944" y="134" width="10" height="10" rx="2" fill="#161B22" opacity="0.4"/><rect x="944" y="146" width="10" height="10" rx="2" fill="#161B22" opacity="0.4"/><rect x="944" y="158" width="10" height="10" rx="2" fill="#161B22" opacity="0.4"/><rect x="944" y="170" width="10" height="10" rx="2" fill="#161B22" opacity="0.4"/><rect x="944" y="182" width="10" height="10" rx="2" fill="#161B22" opacity="0.4"/><rect x="956" y="110" width="10" height="10" rx="2" fill="#161B22" opacity="0.4"/><rect x="956" y="122" width="10" height="10" rx="2" fill="#161B22" opacity="0.4"/><rect x="956" y="134" width="10" height="10" rx="2" fill="#161B22" opacity="0.4"/><rect x="956" y="146" width="10" height="10" rx="2" fill="#161B22" opacity="0.4"/><rect x="956" y="158" width="10" height="10" rx="2" fill="#161B22" opacity="0.4"/><rect x="956" y="170" width="10" height="10" rx="2" fill="#161B22" opacity="0.4"/><rect x="956" y="182" width="10" height="10" rx="2" fill="#161B22" opacity="0.4"/><rect x="968" y="110" width="10" height="10" rx="2" fill="#161B22" opacity="0.4"/><rect x="968" y="122" width="10" height="10" rx="2" fill="#161B22" opacity="0.4"/><rect x="968" y="134" width="10" height="10" rx="2" fill="#161B22" opacity="0.4"/><rect x="968" y="146" width="10" height="10" rx="2" fill="#161B22" opacity="0.4"/><rect x="968" y="158" width="10" height="10" rx="2" fill="#161B22" opacity="0.4"/><rect x="968" y="170" width="10" height="10" rx="2" fill="#161B22" opacity="0.4"/><rect x="968" y="182" width="10" height="10" rx="2" fill="#161B22" opacity="0.4"/><rect x="980" y="110" width="10" height="10" rx="2" fill="#161B22" opacity="0.4"/><rect x="980" y="122" width="10" height="10" rx="2" fill="#161B22" opacity="0.4"/><rect x="980" y="134" width="10" height="10" rx="2" fill="#161B22" opacity="0.4"/><rect x="980" y="146" width="10" height="10" rx="2" fill="#161B22" opacity="0.4"/><rect x="980" y="158" width="10" height="10" rx="2" fill="#161B22" opacity="0.4"/><rect x="980" y="170" width="10" height="10" rx="2" fill="#161B22" opacity="0.4"/><rect x="980" y="182" width="10" height="10" rx="2" fill="#161B22" opacity="0.4"/><rect x="992" y="110" width="10" height="10" rx="2" fill="#161B22" opacity="0.4"/><rect x="992" y="122" width="10" height="10" rx="2" fill="#161B22" opacity="0.4"/><rect x="992" y="134" width="10" height="10" rx="2" fill="#161B22" opacity="0.4"/><rect x="992" y="146" width="10" height="10" rx="2" fill="#161B22" opacity="0.4"/><rect x="992" y="158" width="10" height="10" rx="2" fill="#161B22" opacity="0.4"/><rect x="992" y="170" width="10" height="10" rx="2" fill="#161B22" opacity="0.4"/><rect x="992" y="182" width="10" height="10" rx="2" fill="#161B22" opacity="0.4"/><rect x="1004" y="110" width="10" height="10" rx="2" fill="#161B22" opacity="0.4"/><rect x="1004" y="122" width="10" height="10" rx="2" fill="#161B22" opacity="0.4"/><rect x="1004" y="134" width="10" height="10" rx="2" fill="#161B22" opacity="0.4"/><rect x="1004" y="146" width="10" height="10" rx="2" fill="#161B22" opacity="0.4"/><rect x="1004" y="158" width="10" height="10" rx="2" fill="#161B22" opacity="0.4"/><rect x="1004" y="170" width="10" height="10" rx="2" fill="#161B22" opacity="0.4"/><rect x="1004" y="182" width="10" height="10" rx="2" fill="#161B22" opacity="0.4"/><rect x="1016" y="110" width="10" height="10" rx="2" fill="#161B22" opacity="0.4"/><rect x="1016" y="122" width="10" height="10" rx="2" fill="#161B22" opacity="0.4"/><rect x="1016" y="134" width="10" height="10" rx="2" fill="#161B22" opacity="0.4"/><rect x="1016" y="146" width="10" height="10" rx="2" fill="#161B22" opacity="0.4"/><rect x="1016" y="158" width="10" height="10" rx="2" fill="#161B22" opacity="0.4"/><rect x="1016" y="170" width="10" height="10" rx="2" fill="#161B22" opacity="0.4"/><rect x="1016" y="182" width="10" height="10" rx="2" fill="#161B22" opacity="0.4"/><rect x="1028" y="110" width="10" height="10" rx="2" fill="#161B22" opacity="0.4"/><rect x="1028" y="122" width="10" height="10" rx="2" fill="#161B22" opacity="0.4"/><rect x="1028" y="134" width="10" height="10" rx="2" fill="#161B22" opacity="0.4"/><rect x="1028" y="146" width="10" height="10" rx="2" fill="#161B22" opacity="0.4"/><rect x="1028" y="158" width="10" height="10" rx="2" fill="#161B22" opacity="0.4"/><rect x="1028" y="170" width="10" height="10" rx="2" fill="#161B22" opacity="0.4"/><rect x="1028" y="182" width="10" height="10" rx="2" fill="#161B22" opacity="0.4"/><rect x="1040" y="110" width="10" height="10" rx="2" fill="#161B22" opacity="0.4"/><rect x="1040" y="122" width="10" height="10" rx="2" fill="#161B22" opacity="0.4"/><rect x="1040" y="134" width="10" height="10" rx="2" fill="#161B22" opacity="0.4"/><rect x="1040" y="146" width="10" height="10" rx="2" fill="#161B22" opacity="0.4"/><rect x="1040" y="158" width="10" height="10" rx="2" fill="#161B22" opacity="0.4"/><rect x="1040" y="170" width="10" height="10" rx="2" fill="#161B22" opacity="0.4"/><rect x="1040" y="182" width="10" height="10" rx="2" fill="#161B22" opacity="0.4"/><rect x="1052" y="110" width="10" height="10" rx="2" fill="#161B22" opacity="0.4"/><rect x="1052" y="122" width="10" height="10" rx="2" fill="#161B22" opacity="0.4"/><rect x="1052" y="134" width="10" height="10" rx="2" fill="#161B22" opacity="0.4"/><rect x="1052" y="146" width="10" height="10" rx="2" fill="#161B22" opacity="0.4"/><rect x="1052" y="158" width="10" height="10" rx="2" fill="#161B22" opacity="0.4"/><rect x="1052" y="170" width="10" height="10" rx="2" fill="#161B22" opacity="0.4"/><rect x="1052" y="182" width="10" height="10" rx="2" fill="#161B22" opacity="0.4"/><rect x="1064" y="110" width="10" height="10" rx="2" fill="#161B22" opacity="0.4"/><rect x="1064" y="122" width="10" height="10" rx="2" fill="#161B22" opacity="0.4"/><rect x="1064" y="134" width="10" height="10" rx="2" fill="#161B22" opacity="0.4"/><rect x="1064" y="146" width="10" height="10" rx="2" fill="#161B22" opacity="0.4"/><rect x="1064" y="158" width="10" height="10" rx="2" fill="#161B22" opacity="0.4"/><rect x="1064" y="170" width="10" height="10" rx="2" fill="#161B22" opacity="0.4"/><rect x="1064" y="182" width="10" height="10" rx="2" fill="#161B22" opacity="0.4"/><rect x="1076" y="110" width="10" height="10" rx="2" fill="#161B22" opacity="0.4"/><rect x="1076" y="122" width="10" height="10" rx="2" fill="#161B22" opacity="0.4"/><rect x="1076" y="134" width="10" height="10" rx="2" fill="#161B22" opacity="0.4"/><rect x="1076" y="146" width="10" height="10" rx="2" fill="#161B22" opacity="0.4"/><rect x="1076" y="158" width="10" height="10" rx="2" fill="#161B22" opacity="0.4"/><rect x="1076" y="170" width="10" height="10" rx="2" fill="#161B22" opacity="0.4"/><rect x="1076" y="182" width="10" height="10" rx="2" fill="#161B22" opacity="0.4"/><rect x="1088" y="110" width="10" height="10" rx="2" fill="#161B22" opacity="0.4"/><rect x="1088" y="122" width="10" height="10" rx="2" fill="#161B22" opacity="0.4"/><rect x="1088" y="134" width="10" height="10" rx="2" fill="#161B22" opacity="0.4"/><rect x="1088" y="146" width="10" height="10" rx="2" fill="#161B22" opacity="0.4"/><rect x="1088" y="158" width="10" height="10" rx="2" fill="#161B22" opacity="0.4"/><rect x="1088" y="170" width="10" height="10" rx="2" fill="#161B22" opacity="0.4"/><rect x="1088" y="182" width="10" height="10" rx="2" fill="#161B22" opacity="0.4"/><rect x="1100" y="110" width="10" height="10" rx="2" fill="#161B22" opacity="0.4"/><rect x="1100" y="122" width="10" height="10" rx="2" fill="#161B22" opacity="0.4"/><rect x="1100" y="134" width="10" height="10" rx="2" fill="#161B22" opacity="0.4"/><rect x="1100" y="146" width="10" height="10" rx="2" fill="#161B22" opacity="0.4"/><rect x="1100" y="158" width="10" height="10" rx="2" fill="#161B22" opacity="0.4"/><rect x="1100" y="170" width="10" height="10" rx="2" fill="#161B22" opacity="0.4"/><rect x="1100" y="182" width="10" height="10" rx="2" fill="#161B22" opacity="0.4"/><rect x="1112" y="110" width="10" height="10" rx="2" fill="#161B22" opacity="0.4"/><rect x="1112" y="122" width="10" height="10" rx="2" fill="#161B22" opacity="0.4"/><rect x="1112" y="134" width="10" height="10" rx="2" fill="#161B22" opacity="0.4"/><rect x="1112" y="146" width="10" height="10" rx="2" fill="#161B22" opacity="0.4"/><rect x="1112" y="158" width="10" height="10" rx="2" fill="#161B22" opacity="0.4"/><rect x="1112" y="170" width="10" height="10" rx="2" fill="#161B22" opacity="0.4"/><rect x="1112" y="182" width="10" height="10" rx="2" fill="#161B22" opacity="0.4"/><rect x="1124" y="110" width="10" height="10" rx="2" fill="#161B22" opacity="0.4"/><rect x="1124" y="122" width="10" height="10" rx="2" fill="#161B22" opacity="0.4"/><rect x="1124" y="134" width="10" height="10" rx="2" fill="#161B22" opacity="0.4"/><rect x="1124" y="146" width="10" height="10" rx="2" fill="#161B22" opacity="0.4"/><rect x="1124" y="158" width="10" height="10" rx="2" fill="#161B22" opacity="0.4"/><rect x="1124" y="170" width="10" height="10" rx="2" fill="#161B22" opacity="0.4"/><rect x="1124" y="182" width="10" height="10" rx="2" fill="#161B22" opacity="0.4"/><rect x="1136" y="110" width="10" height="10" rx="2" fill="#161B22" opacity="0.4"/><rect x="1136" y="122" width="10" height="10" rx="2" fill="#161B22" opacity="0.4"/><rect x="1136" y="134" width="10" height="10" rx="2" fill="#161B22" opacity="0.4"/><rect x="1136" y="146" width="10" height="10" rx="2" fill="#161B22" opacity="0.4"/><rect x="1136" y="158" width="10" height="10" rx="2" fill="#161B22" opacity="0.4"/><rect x="1136" y="170" width="10" height="10" rx="2" fill="#161B22" opacity="0.4"/><rect x="1136" y="182" width="10" height="10" rx="2" fill="#161B22" opacity="0.4"/><rect x="1148" y="110" width="10" height="10" rx="2" fill="#161B22" opacity="0.4"/><rect x="1148" y="122" width="10" height="10" rx="2" fill="#161B22" opacity="0.4"/><rect x="1148" y="134" width="10" height="10" rx="2" fill="#161B22" opacity="0.4"/><rect x="1148" y="146" width="10" height="10" rx="2" fill="#161B22" opacity="0.4"/><rect x="1148" y="158" width="10" height="10" rx="2" fill="#161B22" opacity="0.4"/><rect x="1148" y="170" width="10" height="10" rx="2" fill="#161B22" opacity="0.4"/><rect x="1148" y="182" width="10" height="10" rx="2" fill="#161B22" opacity="0.4"/><rect x="1160" y="110" width="10" height="10" rx="2" fill="#161B22" opacity="0.4"/><rect x="1160" y="122" width="10" height="10" rx="2" fill="#161B22" opacity="0.4"/><rect x="1160" y="134" width="10" height="10" rx="2" fill="#161B22" opacity="0.4"/><rect x="1160" y="146" width="10" height="10" rx="2" fill="#161B22" opacity="0.4"/><rect x="1160" y="158" width="10" height="10" rx="2" fill="#161B22" opacity="0.4"/><rect x="1160" y="170" width="10" height="10" rx="2" fill="#161B22" opacity="0.4"/><rect x="1160" y="182" width="10" height="10" rx="2" fill="#161B22" opacity="0.4"/><rect x="1172" y="110" width="10" height="10" rx="2" fill="#161B22" opacity="0.4"/><rect x="1172" y="122" width="10" height="10" rx="2" fill="#161B22" opacity="0.4"/><rect x="1172" y="134" width="10" height="10" rx="2" fill="#161B22" opacity="0.4"/><rect x="1172" y="146" width="10" height="10" rx="2" fill="#161B22" opacity="0.4"/><rect x="1172" y="158" width="10" height="10" rx="2" fill="#161B22" opacity="0.4"/><rect x="1172" y="170" width="10" height="10" rx="2" fill="#161B22" opacity="0.4"/><rect x="1172" y="182" width="10" height="10" rx="2" fill="#161B22" opacity="0.4"/><rect x="1184" y="110" width="10" height="10" rx="2" fill="#161B22" opacity="0.4"/><rect x="1184" y="122" width="10" height="10" rx="2" fill="#161B22" opacity="0.4"/><rect x="1184" y="134" width="10" height="10" rx="2" fill="#161B22" opacity="0.4"/><rect x="1184" y="146" width="10" height="10" rx="2" fill="#161B22" opacity="0.4"/><rect x="1184" y="158" width="10" height="10" rx="2" fill="#161B22" opacity="0.4"/><rect x="1184" y="170" width="10" height="10" rx="2" fill="#161B22" opacity="0.4"/><rect x="1184" y="182" width="10" height="10" rx="2" fill="#161B22" opacity="0.4"/><rect x="1196" y="110" width="10" height="10" rx="2" fill="#161B22" opacity="0.4"/><rect x="1196" y="122" width="10" height="10" rx="2" fill="#161B22" opacity="0.4"/><rect x="1196" y="134" width="10" height="10" rx="2" fill="#161B22" opacity="0.4"/><rect x="1196" y="146" width="10" height="10" rx="2" fill="#161B22" opacity="0.4"/><rect x="1196" y="158" width="10" height="10" rx="2" fill="#161B22" opacity="0.4"/><rect x="1196" y="170" width="10" height="10" rx="2" fill="#161B22" opacity="0.4"/><rect x="1196" y="182" width="10" height="10" rx="2" fill="#161B22" opacity="0.4"/><rect x="1208" y="110" width="10" height="10" rx="2" fill="#161B22" opacity="0.4"/><rect x="1208" y="122" width="10" height="10" rx="2" fill="#161B22" opacity="0.4"/><rect x="1208" y="134" width="10" height="10" rx="2" fill="#161B22" opacity="0.4"/><rect x="1208" y="146" width="10" height="10" rx="2" fill="#161B22" opacity="0.4"/><rect x="1208" y="158" width="10" height="10" rx="2" fill="#161B22" opacity="0.4"/><rect x="1208" y="170" width="10" height="10" rx="2" fill="#161B22" opacity="0.4"/><rect x="1208" y="182" width="10" height="10" rx="2" fill="#161B22" opacity="0.4"/><rect x="1220" y="110" width="10" height="10" rx="2" fill="#161B22" opacity="0.4"/><rect x="1220" y="122" width="10" height="10" rx="2" fill="#161B22" opacity="0.4"/><rect x="1220" y="134" width="10" height="10" rx="2" fill="#161B22" opacity="0.4"/><rect x="1220" y="146" width="10" height="10" rx="2" fill="#161B22" opacity="0.4"/><rect x="1220" y="158" width="10" height="10" rx="2" fill="#161B22" opacity="0.4"/><rect x="1220" y="170" width="10" height="10" rx="2" fill="#161B22" opacity="0.4"/><rect x="1220" y="182" width="10" height="10" rx="2" fill="#161B22" opacity="0.4"/><rect x="1232" y="110" width="10" height="10" rx="2" fill="#161B22" opacity="0.4"/><rect x="1232" y="122" width="10" height="10" rx="2" fill="#161B22" opacity="0.4"/><rect x="1232" y="134" width="10" height="10" rx="2" fill="#161B22" opacity="0.4"/><rect x="1232" y="146" width="10" height="10" rx="2" fill="#161B22" opacity="0.4"/><rect x="1232" y="158" width="10" height="10" rx="2" fill="#161B22" opacity="0.4"/><rect x="1232" y="170" width="10" height="10" rx="2" fill="#161B22" opacity="0.4"/><rect x="1232" y="182" width="10" height="10" rx="2" fill="#161B22" opacity="0.4"/><text x="48" y="308" font-family="'SF Mono',monospace" font-size="10" fill="#6E7681" letter-spacing="2">
		LANGUAGE BREAKDOWN
	</text><text x="48" y="329" font-family="'SF Mono',monospace" font-size="11" fill="#E6EDF3">
			Go
		</text><text x="148" y="329" font-family="'SF Mono',monospace" font-size="9" fill="#6E7681">
			63.8%
		</text><rect x="208" y="322" width="904" height="6" rx="3" fill="#21262D"/><rect x="208" y="322" width="0" height="6" rx="3" fill="#00ADD8">
			<animate attributeName="width" from="0" to="577" dur="0.8s" fill="freeze" begin="0.3s"/>
		</rect><circle cx="785" cy="325" r="3" fill="#00ADD8" opacity="0">
			<animate attributeName="opacity" from="0" to="0.4" dur="0.3s" fill="freeze" begin="0.8s"/>
		</circle><text x="48" y="351" font-family="'SF Mono',monospace" font-size="11" fill="#E6EDF3">
			TypeScript
		</text><text x="148" y="351" font-family="'SF Mono',monospace" font-size="9" fill="#6E7681">
			16.0%
		</text><rect x="208" y="344" width="904" height="6" rx="3" fill="#21262D"/><rect x="208" y="344" width="0" height="6" rx="3" fill="#3178C6">
			<animate attributeName="width" from="0" to="144" dur="0.8s" fill="freeze" begin="0.4s"/>
		</rect><circle cx="352" cy="347" r="3" fill="#3178C6" opacity="0">
			<animate attributeName="opacity" from="0" to="0.4" dur="0.3s" fill="freeze" begin="0.9s"/>
		</circle><text x="48" y="373" font-family="'SF Mono',monospace" font-size="11" fill="#E6EDF3">
			Python
		</text><text x="148" y="373" font-family="'SF Mono',monospace" font-size="9" fill="#6E7681">
			10.6%
		</text><rect x="208" y="366" width="904" height="6" rx="3" fill="#21262D"/><rect x="208" y="366" width="0" height="6" rx="3" fill="#3776AB">
			<animate attributeName="width" from="0" to="96" dur="0.8s" fill="freeze" begin="0.5s"/>
		</rect><circle cx="304" cy="369" r="3" fill="#3776AB" opacity="0">
			<animate attributeName="opacity" from="0" to="0.4" dur="0.3s" fill="freeze" begin="1.0s"/>
		</circle><text x="48" y="395" font-family="'SF Mono',monospace" font-size="11" fill="#E6EDF3">
			Svelte
		</text><text x="148" y="395" font-family="'SF Mono',monospace" font-size="9" fill="#6E7681">
			9.6%
		</text><rect x="208" y="388" width="904" height="6" rx="3" fill="#21262D"/><rect x="208" y="388" width="0" height="6" rx="3" fill="#ff3e00">
			<animate attributeName="width" from="0" to="86" dur="0.8s" fill="freeze" begin="0.5s"/>
		</rect><circle cx="294" cy="391" r="3" fill="#ff3e00" opacity="0">
			<animate attributeName="opacity" from="0" to="0.4" dur="0.3s" fill="freeze" begin="1.0s"/>
		</circle><rect x="0" y="-80" width="1200" height="80" fill="url(#scanBeam)" opacity="0.6">
		<animateTransform attributeName="transform" type="translate" from="0 -80" to="0 560" dur="4s" repeatCount="indefinite"/>
	</rect><rect x="2" y="2" width="1196" height="476" rx="15" fill="none" stroke="url(#borderAnim)" stroke-width="1.5">
		<animate attributeName="stroke-dashoffset" from="0" to="100" dur="8s" repeatCount="indefinite"/>
	</rect></svg>