<?xml version="1.0"?>
<!-- Generated by SVGo -->
<svg width="1180" height="610"
     xmlns="http://www.w3.org/2000/svg"
     xmlns:xlink="http://www.w3.org/1999/xlink">
<defs>
<linearGradient id="accentGrad" x1="0%" y1="0%" x2="100%" y2="0%">
<stop offset="0%" stop-color="#7C3AED" stop-opacity="1.00"/>
<stop offset="50%" stop-color="#22D3EE" stop-opacity="1.00"/>
<stop offset="100%" stop-color="#10B981" stop-opacity="1.00"/>
</linearGradient>
<linearGradient id="textGrad" x1="0%" y1="0%" x2="100%" y2="0%">
<stop offset="0%" stop-color="#7C3AED" stop-opacity="1.00"/>
<stop offset="50%" stop-color="#22D3EE" stop-opacity="1.00"/>
<stop offset="100%" stop-color="#10B981" stop-opacity="1.00"/>
</linearGradient>
<linearGradient id="asciiGrad" x1="0%" y1="0%" x2="0%" y2="100%">
<stop offset="0%" stop-color="#22D3EE" stop-opacity="1.00"/>
<stop offset="100%" stop-color="#10B981" stop-opacity="1.00"/>
</linearGradient>
<linearGradient id="pillGrad" x1="0%" y1="0%" x2="100%" y2="0%">
<stop offset="0%" stop-color="#7C3AED" stop-opacity="0.15"/>
<stop offset="100%" stop-color="#10B981" stop-opacity="0.15"/>
</linearGradient>
<linearGradient id="pillStroke" x1="0%" y1="0%" x2="100%" y2="0%">
<stop offset="0%" stop-color="#7C3AED" stop-opacity="0.60"/>
<stop offset="100%" stop-color="#10B981" stop-opacity="0.60"/>
</linearGradient>
<linearGradient id="borderGrad" x1="0%" y1="0%" x2="100%" y2="100%">
<stop offset="0%" stop-color="#7C3AED" stop-opacity="0.40"/>
<stop offset="50%" stop-color="#22D3EE" stop-opacity="0.20"/>
<stop offset="100%" stop-color="#10B981" stop-opacity="0.40"/>
</linearGradient>
<linearGradient id="termGrad" x1="0%" y1="0%" x2="0%" y2="100%">
<stop offset="0%" stop-color="#0F172A" stop-opacity="0.90"/>
<stop offset="100%" stop-color="#030712" stop-opacity="0.95"/>
</linearGradient>
<radialGradient id="bgGlow" cx="50%" cy="50%" r="50%" fx="50%" fy="50%">
<stop offset="0%" stop-color="#7C3AED" stop-opacity="0.12"/>
<stop offset="100%" stop-color="#7C3AED" stop-opacity="0.00"/>
</radialGradient>
<radialGradient id="bgGlow2" cx="50%" cy="50%" r="50%" fx="50%" fy="50%">
<stop offset="0%" stop-color="#22D3EE" stop-opacity="0.08"/>
<stop offset="100%" stop-color="#22D3EE" stop-opacity="0.00"/>
</radialGradient>
<radialGradient id="bgGlow3" cx="50%" cy="50%" r="50%" fx="50%" fy="50%">
<stop offset="0%" stop-color="#10B981" stop-opacity="0.06"/>
<stop offset="100%" stop-color="#10B981" stop-opacity="0.00"/>
</radialGradient>
<linearGradient id="glowGrad" x1="0%" y1="0%" x2="100%" y2="100%">
<stop offset="0%" stop-color="#22D3EE" stop-opacity="0.30"/>
<stop offset="100%" stop-color="#10B981" stop-opacity="0.10"/>
</linearGradient>
<filter id="glow" style="-20% -20% 140% 140%" >
<feGaussianBlur in="SourceGraphic" result="blur"  stdDeviation="4 4" />
<feMerge>
<feMergeNode in="blur"/>
<feMergeNode in="SourceGraphic"/>
</feMerge>
</filter>
<filter id="softGlow" style="-10% -10% 120% 120%" >
<feGaussianBlur in="SourceGraphic" result="blur"  stdDeviation="2 2" />
<feMerge>
<feMergeNode in="blur"/>
<feMergeNode in="SourceGraphic"/>
</feMerge>
</filter>
<filter id="glassBlur" style="-5% -5% 110% 110%" >
<feGaussianBlur in="SourceGraphic" result="blur"  stdDeviation="6 6" />
</filter>
</defs>
<rect x="0" y="0" width="1180" height="610" fill="#030712" />
<circle cx="200" cy="150" r="300" fill="url(#bgGlow)" />
<circle cx="900" cy="450" r="350" fill="url(#bgGlow2)" />
<circle cx="600" cy="300" r="250" fill="url(#bgGlow3)" />
<line x1="0" y1="0" x2="0" y2="610" stroke="rgba(255,255,255,0.03)" stroke-width="0.5" />
<line x1="40" y1="0" x2="40" y2="610" stroke="rgba(255,255,255,0.03)" stroke-width="0.5" />
<line x1="80" y1="0" x2="80" y2="610" stroke="rgba(255,255,255,0.03)" stroke-width="0.5" />
<line x1="120" y1="0" x2="120" y2="610" stroke="rgba(255,255,255,0.03)" stroke-width="0.5" />
<line x1="160" y1="0" x2="160" y2="610" stroke="rgba(255,255,255,0.03)" stroke-width="0.5" />
<line x1="200" y1="0" x2="200" y2="610" stroke="rgba(255,255,255,0.03)" stroke-width="0.5" />
<line x1="240" y1="0" x2="240" y2="610" stroke="rgba(255,255,255,0.03)" stroke-width="0.5" />
<line x1="280" y1="0" x2="280" y2="610" stroke="rgba(255,255,255,0.03)" stroke-width="0.5" />
<line x1="320" y1="0" x2="320" y2="610" stroke="rgba(255,255,255,0.03)" stroke-width="0.5" />
<line x1="360" y1="0" x2="360" y2="610" stroke="rgba(255,255,255,0.03)" stroke-width="0.5" />
<line x1="400" y1="0" x2="400" y2="610" stroke="rgba(255,255,255,0.03)" stroke-width="0.5" />
<line x1="440" y1="0" x2="440" y2="610" stroke="rgba(255,255,255,0.03)" stroke-width="0.5" />
<line x1="480" y1="0" x2="480" y2="610" stroke="rgba(255,255,255,0.03)" stroke-width="0.5" />
<line x1="520" y1="0" x2="520" y2="610" stroke="rgba(255,255,255,0.03)" stroke-width="0.5" />
<line x1="560" y1="0" x2="560" y2="610" stroke="rgba(255,255,255,0.03)" stroke-width="0.5" />
<line x1="600" y1="0" x2="600" y2="610" stroke="rgba(255,255,255,0.03)" stroke-width="0.5" />
<line x1="640" y1="0" x2="640" y2="610" stroke="rgba(255,255,255,0.03)" stroke-width="0.5" />
<line x1="680" y1="0" x2="680" y2="610" stroke="rgba(255,255,255,0.03)" stroke-width="0.5" />
<line x1="720" y1="0" x2="720" y2="610" stroke="rgba(255,255,255,0.03)" stroke-width="0.5" />
<line x1="760" y1="0" x2="760" y2="610" stroke="rgba(255,255,255,0.03)" stroke-width="0.5" />
<line x1="800" y1="0" x2="800" y2="610" stroke="rgba(255,255,255,0.03)" stroke-width="0.5" />
<line x1="840" y1="0" x2="840" y2="610" stroke="rgba(255,255,255,0.03)" stroke-width="0.5" />
<line x1="880" y1="0" x2="880" y2="610" stroke="rgba(255,255,255,0.03)" stroke-width="0.5" />
<line x1="920" y1="0" x2="920" y2="610" stroke="rgba(255,255,255,0.03)" stroke-width="0.5" />
<line x1="960" y1="0" x2="960" y2="610" stroke="rgba(255,255,255,0.03)" stroke-width="0.5" />
<line x1="1000" y1="0" x2="1000" y2="610" stroke="rgba(255,255,255,0.03)" stroke-width="0.5" />
<line x1="1040" y1="0" x2="1040" y2="610" stroke="rgba(255,255,255,0.03)" stroke-width="0.5" />
<line x1="1080" y1="0" x2="1080" y2="610" stroke="rgba(255,255,255,0.03)" stroke-width="0.5" />
<line x1="1120" y1="0" x2="1120" y2="610" stroke="rgba(255,255,255,0.03)" stroke-width="0.5" />
<line x1="1160" y1="0" x2="1160" y2="610" stroke="rgba(255,255,255,0.03)" stroke-width="0.5" />
<line x1="0" y1="0" x2="1180" y2="0" stroke="rgba(255,255,255,0.03)" stroke-width="0.5" />
<line x1="0" y1="40" x2="1180" y2="40" stroke="rgba(255,255,255,0.03)" stroke-width="0.5" />
<line x1="0" y1="80" x2="1180" y2="80" stroke="rgba(255,255,255,0.03)" stroke-width="0.5" />
<line x1="0" y1="120" x2="1180" y2="120" stroke="rgba(255,255,255,0.03)" stroke-width="0.5" />
<line x1="0" y1="160" x2="1180" y2="160" stroke="rgba(255,255,255,0.03)" stroke-width="0.5" />
<line x1="0" y1="200" x2="1180" y2="200" stroke="rgba(255,255,255,0.03)" stroke-width="0.5" />
<line x1="0" y1="240" x2="1180" y2="240" stroke="rgba(255,255,255,0.03)" stroke-width="0.5" />
<line x1="0" y1="280" x2="1180" y2="280" stroke="rgba(255,255,255,0.03)" stroke-width="0.5" />
<line x1="0" y1="320" x2="1180" y2="320" stroke="rgba(255,255,255,0.03)" stroke-width="0.5" />
<line x1="0" y1="360" x2="1180" y2="360" stroke="rgba(255,255,255,0.03)" stroke-width="0.5" />
<line x1="0" y1="400" x2="1180" y2="400" stroke="rgba(255,255,255,0.03)" stroke-width="0.5" />
<line x1="0" y1="440" x2="1180" y2="440" stroke="rgba(255,255,255,0.03)" stroke-width="0.5" />
<line x1="0" y1="480" x2="1180" y2="480" stroke="rgba(255,255,255,0.03)" stroke-width="0.5" />
<line x1="0" y1="520" x2="1180" y2="520" stroke="rgba(255,255,255,0.03)" stroke-width="0.5" />
<line x1="0" y1="560" x2="1180" y2="560" stroke="rgba(255,255,255,0.03)" stroke-width="0.5" />
<line x1="0" y1="600" x2="1180" y2="600" stroke="rgba(255,255,255,0.03)" stroke-width="0.5" />
<g transform="translate(40, 30)" >
<rect x="0" y="0" width="420" height="550" rx="16" ry="16" fill="rgba(15,23,42,0.6)" stroke="rgba(255,255,255,0.08)" stroke-width="1" />
<rect x="0" y="0" width="420" height="550" rx="16" ry="16" fill="none" stroke="url(#borderGrad)" stroke-width="1.5" />
<text x="210" y="35" font-size="11" font-family="'Courier New', monospace" fill="#22D3EE" text-anchor="middle" opacity="0.6" >$ neofetch --ascii</text>
<line x1="20" y1="48" x2="400" y2="48" stroke="rgba(255,255,255,0.08)" stroke-width="0.5" />
<text x="25" y="68" font-family="'Courier New', 'Fira Code', monospace" font-size="10" fill="url(#asciiGrad)" letter-spacing="0" >  ████████╗██╗  ██╗███████╗</text>
<text x="25" y="79" font-family="'Courier New', 'Fira Code', monospace" font-size="10" fill="url(#asciiGrad)" letter-spacing="0" >  ╚══██╔══╝██║  ██║██╔════╝</text>
<text x="25" y="90" font-family="'Courier New', 'Fira Code', monospace" font-size="10" fill="url(#asciiGrad)" letter-spacing="0" >     ██║   ███████║█████╗  </text>
<text x="25" y="101" font-family="'Courier New', 'Fira Code', monospace" font-size="10" fill="url(#asciiGrad)" letter-spacing="0" >     ██║   ██╔══██║██╔══╝  </text>
<text x="25" y="112" font-family="'Courier New', 'Fira Code', monospace" font-size="10" fill="url(#asciiGrad)" letter-spacing="0" >     ██║   ██║  ██║███████╗</text>
<text x="25" y="123" font-family="'Courier New', 'Fira Code', monospace" font-size="10" fill="url(#asciiGrad)" letter-spacing="0" >     ╚═╝   ╚═╝  ╚═╝╚══════╝</text>
<text x="30" y="154" font-size="10" font-family="'Courier New', monospace" fill="#22D3EE" font-weight="bold" >OS</text>
<text x="120" y="154" font-size="10" font-family="'Courier New', monospace" fill="#F8FAFC" >GitHub Profile</text>
<text x="30" y="172" font-size="10" font-family="'Courier New', monospace" fill="#22D3EE" font-weight="bold" >Host</text>
<text x="120" y="172" font-size="10" font-family="'Courier New', monospace" fill="#F8FAFC" >krauzX</text>
<text x="30" y="190" font-size="10" font-family="'Courier New', monospace" fill="#22D3EE" font-weight="bold" >Shell</text>
<text x="120" y="190" font-size="10" font-family="'Courier New', monospace" fill="#F8FAFC" >gitright</text>
<text x="30" y="208" font-size="10" font-family="'Courier New', monospace" fill="#22D3EE" font-weight="bold" >Contribs</text>
<text x="120" y="208" font-size="10" font-family="'Courier New', monospace" fill="#F8FAFC" >0</text>
<text x="30" y="226" font-size="10" font-family="'Courier New', monospace" fill="#22D3EE" font-weight="bold" >Repos</text>
<text x="120" y="226" font-size="10" font-family="'Courier New', monospace" fill="#F8FAFC" >1</text>
<rect x="25" y="269" width="42" height="12" rx="3" ry="3" fill="#7C3AED" opacity="0.7" />
<rect x="69" y="269" width="42" height="12" rx="3" ry="3" fill="#22D3EE" opacity="0.5" />
<rect x="73" y="269" width="42" height="12" rx="3" ry="3" fill="#7C3AED" opacity="0.7" />
<rect x="117" y="269" width="42" height="12" rx="3" ry="3" fill="#22D3EE" opacity="0.5" />
<rect x="121" y="269" width="42" height="12" rx="3" ry="3" fill="#7C3AED" opacity="0.7" />
<rect x="165" y="269" width="42" height="12" rx="3" ry="3" fill="#22D3EE" opacity="0.5" />
<rect x="169" y="269" width="42" height="12" rx="3" ry="3" fill="#7C3AED" opacity="0.7" />
<rect x="213" y="269" width="42" height="12" rx="3" ry="3" fill="#22D3EE" opacity="0.5" />
<rect x="217" y="269" width="42" height="12" rx="3" ry="3" fill="#7C3AED" opacity="0.7" />
<rect x="261" y="269" width="42" height="12" rx="3" ry="3" fill="#22D3EE" opacity="0.5" />
<rect x="265" y="269" width="42" height="12" rx="3" ry="3" fill="#7C3AED" opacity="0.7" />
<rect x="309" y="269" width="42" height="12" rx="3" ry="3" fill="#22D3EE" opacity="0.5" />
<rect x="313" y="269" width="42" height="12" rx="3" ry="3" fill="#7C3AED" opacity="0.7" />
<rect x="357" y="269" width="42" height="12" rx="3" ry="3" fill="#22D3EE" opacity="0.5" />
<rect x="361" y="269" width="42" height="12" rx="3" ry="3" fill="#7C3AED" opacity="0.7" />
<rect x="405" y="269" width="42" height="12" rx="3" ry="3" fill="#22D3EE" opacity="0.5" />
</g>
<g transform="translate(490, 30)" >
<rect x="0" y="0" width="650" height="550" rx="16" ry="16" fill="rgba(15,23,42,0.6)" stroke="rgba(255,255,255,0.08)" stroke-width="1" />
<rect x="0" y="0" width="650" height="550" rx="16" ry="16" fill="none" stroke="url(#borderGrad)" stroke-width="1.5" />
<rect x="10" y="10" width="630" height="32" rx="10" ry="10" fill="#0F172A" stroke="rgba(255,255,255,0.08)" stroke-width="0.5" />
<circle cx="30" cy="26" r="5" fill="#FF5F56" opacity="0.8" />
<circle cx="50" cy="26" r="5" fill="#FFBD2E" opacity="0.8" />
<circle cx="70" cy="26" r="5" fill="#27C93F" opacity="0.8" />
<text x="325" y="30" font-size="11" font-family="'SF Mono', monospace" fill="#94A3B8" text-anchor="middle" opacity="0.6" >terminal</text>
<text x="40" y="65" font-size="18" font-family="'SF Pro Display', 'Inter', sans-serif" fill="#94A3B8" >Hi,</text>
<text x="40" y="105" font-size="34" font-family="'SF Pro Display', 'Inter', sans-serif" font-weight="bold" fill="url(#textGrad)" filter="url(#softGlow)" >I&#39;m krauzX</text>
<text x="40" y="165" font-size="11" font-family="'SF Mono', monospace" fill="#22D3EE" >email</text>
<text x="140" y="165" font-size="13" font-family="'SF Pro Text', 'Inter', sans-serif" fill="#F8FAFC" >aryanrajapandey@gmail.com</text>
<rect x="32" y="283" width="130" height="48" rx="8" ry="8" fill="rgba(15,23,42,0.6)" stroke="rgba(255,255,255,0.08)" stroke-width="0.5" />
<text x="40" y="305" font-size="22" font-family="'SF Pro Display', 'Inter', sans-serif" font-weight="bold" fill="url(#textGrad)" >0</text>
<text x="40" y="323" font-size="10" font-family="'SF Mono', monospace" fill="#94A3B8" >contributions</text>
<rect x="182" y="283" width="130" height="48" rx="8" ry="8" fill="rgba(15,23,42,0.6)" stroke="rgba(255,255,255,0.08)" stroke-width="0.5" />
<text x="190" y="305" font-size="22" font-family="'SF Pro Display', 'Inter', sans-serif" font-weight="bold" fill="url(#textGrad)" >0</text>
<text x="190" y="323" font-size="10" font-family="'SF Mono', monospace" fill="#94A3B8" >followers</text>
<rect x="332" y="283" width="130" height="48" rx="8" ry="8" fill="rgba(15,23,42,0.6)" stroke="rgba(255,255,255,0.08)" stroke-width="0.5" />
<text x="340" y="305" font-size="22" font-family="'SF Pro Display', 'Inter', sans-serif" font-weight="bold" fill="url(#textGrad)" >1</text>
<text x="340" y="323" font-size="10" font-family="'SF Mono', monospace" fill="#94A3B8" >repos</text>
<rect x="482" y="283" width="130" height="48" rx="8" ry="8" fill="rgba(15,23,42,0.6)" stroke="rgba(255,255,255,0.08)" stroke-width="0.5" />
<text x="490" y="305" font-size="22" font-family="'SF Pro Display', 'Inter', sans-serif" font-weight="bold" fill="url(#textGrad)" >0</text>
<text x="490" y="323" font-size="10" font-family="'SF Mono', monospace" fill="#94A3B8" >prs</text>
<text x="40" y="395" font-size="10" font-family="'SF Mono', monospace" fill="#22D3EE" >SKILLS</text>
<rect x="40" y="407" width="76" height="26" rx="13" ry="13" fill="url(#pillGrad)" stroke="url(#pillStroke)" stroke-width="0.8" />
<text x="78" y="424" font-size="11" font-family="'SF Mono', 'Fira Code', monospace" fill="#22D3EE" text-anchor="middle" >Python</text>
<rect x="122" y="407" width="132" height="26" rx="13" ry="13" fill="url(#pillGrad)" stroke="url(#pillStroke)" stroke-width="0.8" />
<text x="188" y="424" font-size="11" font-family="'SF Mono', 'Fira Code', monospace" fill="#22D3EE" text-anchor="middle" >Generative AI</text>
<rect x="260" y="407" width="100" height="26" rx="13" ry="13" fill="url(#pillGrad)" stroke="url(#pillStroke)" stroke-width="0.8" />
<text x="310" y="424" font-size="11" font-family="'SF Mono', 'Fira Code', monospace" fill="#22D3EE" text-anchor="middle" >Streamlit</text>
<rect x="366" y="407" width="172" height="26" rx="13" ry="13" fill="url(#pillGrad)" stroke="url(#pillStroke)" stroke-width="0.8" />
<text x="452" y="424" font-size="11" font-family="'SF Mono', 'Fira Code', monospace" fill="#22D3EE" text-anchor="middle" >Data Visualization</text>
<rect x="40" y="441" width="132" height="26" rx="13" ry="13" fill="url(#pillGrad)" stroke="url(#pillStroke)" stroke-width="0.8" />
<text x="106" y="458" font-size="11" font-family="'SF Mono', 'Fira Code', monospace" fill="#22D3EE" text-anchor="middle" >Data Analysis</text>
<rect x="178" y="441" width="92" height="26" rx="13" ry="13" fill="url(#pillGrad)" stroke="url(#pillStroke)" stroke-width="0.8" />
<text x="224" y="458" font-size="11" font-family="'SF Mono', 'Fira Code', monospace" fill="#22D3EE" text-anchor="middle" >Pydantic</text>
<rect x="276" y="441" width="76" height="26" rx="13" ry="13" fill="url(#pillGrad)" stroke="url(#pillStroke)" stroke-width="0.8" />
<text x="314" y="458" font-size="11" font-family="'SF Mono', 'Fira Code', monospace" fill="#22D3EE" text-anchor="middle" >Plotly</text>
<rect x="358" y="441" width="188" height="26" rx="13" ry="13" fill="url(#pillGrad)" stroke="url(#pillStroke)" stroke-width="0.8" />
<text x="452" y="458" font-size="11" font-family="'SF Mono', 'Fira Code', monospace" fill="#22D3EE" text-anchor="middle" >Software Engineering</text>
<rect x="40" y="475" width="148" height="26" rx="13" ry="13" fill="url(#pillGrad)" stroke="url(#pillStroke)" stroke-width="0.8" />
<text x="114" y="492" font-size="11" font-family="'SF Mono', 'Fira Code', monospace" fill="#22D3EE" text-anchor="middle" >Web Development</text>
<rect x="194" y="475" width="276" height="26" rx="13" ry="13" fill="url(#pillGrad)" stroke="url(#pillStroke)" stroke-width="0.8" />
<text x="332" y="492" font-size="11" font-family="'SF Mono', 'Fira Code', monospace" fill="#22D3EE" text-anchor="middle" >Environmental Impact Assessment</text>
<rect x="476" y="475" width="44" height="26" rx="13" ry="13" fill="url(#pillGrad)" stroke="url(#pillStroke)" stroke-width="0.8" />
<text x="498" y="492" font-size="11" font-family="'SF Mono', 'Fira Code', monospace" fill="#22D3EE" text-anchor="middle" >Go</text>
<rect x="526" y="475" width="76" height="26" rx="13" ry="13" fill="url(#pillGrad)" stroke="url(#pillStroke)" stroke-width="0.8" />
<text x="564" y="492" font-size="11" font-family="'SF Mono', 'Fira Code', monospace" fill="#22D3EE" text-anchor="middle" >Svelte</text>
<rect x="40" y="509" width="108" height="26" rx="13" ry="13" fill="url(#pillGrad)" stroke="url(#pillStroke)" stroke-width="0.8" />
<text x="94" y="526" font-size="11" font-family="'SF Mono', 'Fira Code', monospace" fill="#22D3EE" text-anchor="middle" >TypeScript</text>
<rect x="154" y="509" width="172" height="26" rx="13" ry="13" fill="url(#pillGrad)" stroke="url(#pillStroke)" stroke-width="0.8" />
<text x="240" y="526" font-size="11" font-family="'SF Mono', 'Fira Code', monospace" fill="#22D3EE" text-anchor="middle" >Scalable Solutions</text>
<rect x="332" y="509" width="180" height="26" rx="13" ry="13" fill="url(#pillGrad)" stroke="url(#pillStroke)" stroke-width="0.8" />
<text x="422" y="526" font-size="11" font-family="'SF Mono', 'Fira Code', monospace" fill="#22D3EE" text-anchor="middle" >Backend Development</text>
</g>
</svg>
